<svg id="레이어_1" data-name="레이어 1" xmlns="http://www.w3.org/2000/svg" viewBox="0 0 85.88 25.3"><rect x="21.32" width="1.38" height="25.3"/><rect x="23.4" width="1.38" height="15.17"/><rect x="19.25" y="10.13" width="1.38" height="15.17"/><path d="M384.51,417.37V406.74h-2.77V432h2.77v-2.76l4.78,2.76,7.55-4.36V419l-7.55-4.35Zm9.56,8.71-4.78,2.76-4.78-2.76v-5.52l4.78-2.76,4.78,2.76Z" transform="translate(-381.74 -406.74)"/><path d="M409.29,419v8.72l7.55,4.36,7.55-4.36V419l-7.55-4.35Zm12.33,7.12-4.78,2.76-4.78-2.76v-5.52l4.78-2.76,4.78,2.76Z" transform="translate(-381.74 -406.74)"/><path d="M427.15,419v8.72L434.7,432l7.55-4.36V419l-7.55-4.35Zm12.33,7.12-4.78,2.76-4.78-2.76v-5.52l4.78-2.76,4.78,2.76Z" transform="translate(-381.74 -406.74)"/><polygon points="79.88 7.92 75.27 10.59 70.66 7.92 64.66 11.39 64.66 25.3 67.43 25.3 67.43 12.98 70.66 11.12 73.89 12.98 73.89 25.3 76.65 25.3 76.65 12.98 79.88 11.12 83.11 12.98 83.11 25.3 85.88 25.3 85.88 11.39 79.88 7.92"/></svg>