<svg version="1.1" id="레이어_1" xmlns="http://www.w3.org/2000/svg" viewBox="0 0 60 60">
<path class="st0" d="M53,0H7C3.1,0,0,3.1,0,7v46c0,3.9,3.1,7,7,7h46c3.9,0,7-3.1,7-7V7C60,3.1,56.9,0,53,0z M21,30
	c0,0.1,0,0.1,0,0.2l20.2,10.1c2.6-2.1,6.4-1.7,8.4,0.9c2.1,2.6,1.7,6.4-0.9,8.4c-2.6,2.1-6.4,1.7-8.4-0.9C39.5,47.7,39,46.4,39,45
	c0-0.1,0-0.1,0-0.2L18.8,34.7c-2.6,2.1-6.4,1.7-8.4-0.9s-1.7-6.4,0.9-8.4c2.2-1.8,5.3-1.8,7.5,0L39,15.2c0-0.1,0-0.1,0-0.2
	c0-3.3,2.7-6,6-6c3.3,0,6,2.7,6,6s-2.7,6-6,6c-1.4,0-2.7-0.5-3.8-1.3L21,29.8C21,29.9,21,29.9,21,30z"/>
</svg>
